<?xml version="1.0" encoding="UTF-8"?>
<svg version="1.1" xmlns="http://www.w3.org/2000/svg" width="400" height="200">
<path d="M0 0 C132 0 264 0 400 0 C400 66 400 132 400 200 C268 200 136 200 0 200 C0 134 0 68 0 0 Z " fill="#FCFDFC" transform="translate(0,0)"/>
<path d="M0 0 C56.43 0 112.86 0 171 0 C171 66 171 132 171 200 C106.32 200 41.64 200 -25 200 C-17.15384615 184.30769231 -17.15384615 184.30769231 -14.125 179.125 C-13.4500192 177.95992589 -12.77556148 176.79454862 -12.1015625 175.62890625 C-11.75899414 175.03867676 -11.41642578 174.44844727 -11.06347656 173.84033203 C-6.10366286 165.25744046 -1.27555838 156.59567974 3.4375 147.875 C3.7675 147.27179932 4.0975 146.66859863 4.4375 146.04711914 C9.16468922 137.22443361 10.19247142 128.66284537 10.3125 118.8125 C10.34150391 118.03841797 10.37050781 117.26433594 10.40039062 116.46679688 C10.53180499 104.12395532 4.66163294 93.96618531 -1.375 83.5625 C-17.98790222 54.6884817 -17.98790222 54.6884817 -14.125 38.25 C-11.52243166 30.64641799 -7.00248953 23.64536784 -2.98388672 16.72070312 C-2.28621678 15.50055977 -1.62856871 14.25713743 -1 13 C-0.34 13 0.32 13 1 13 C1.25124626 20.28614158 1.25124626 20.28614158 0.015625 23.796875 C-3.55048774 35.04384594 -0.87075889 46.90271394 4.0625 57.22265625 C5.74407617 60.06615484 7.03048335 61.6895943 10.2434082 62.71826172 C11.04609131 62.87053223 11.84877441 63.02280273 12.67578125 63.1796875 C13.89068237 63.41921143 13.89068237 63.41921143 15.13012695 63.66357422 C15.74718506 63.77459473 16.36424316 63.88561523 17 64 C14.37598398 51.14936585 11.49357293 38.95375692 6 27 C5.65324219 26.22914062 5.30648437 25.45828125 4.94921875 24.6640625 C4.1009295 22.8190767 4.1009295 22.8190767 2 22 C1.97494385 21.44014404 1.9498877 20.88028809 1.92407227 20.3034668 C1.80796255 17.76458695 1.6853042 15.22606447 1.5625 12.6875 C1.52318359 11.80642578 1.48386719 10.92535156 1.44335938 10.01757812 C1.40146484 9.17001953 1.35957031 8.32246094 1.31640625 7.44921875 C1.27974854 6.66893311 1.24309082 5.88864746 1.20532227 5.0847168 C1.05874737 2.80670899 1.05874737 2.80670899 0 0 Z " fill="#FEFEFB" transform="translate(229,0)"/>
<path d="M0 0 C2 0.3125 2 0.3125 4 1 C5.17426264 3.34852528 5.11508173 4.73774065 5.09765625 7.3515625 C5.09443359 8.20234375 5.09121094 9.053125 5.08789062 9.9296875 C5.07532227 11.26386719 5.07532227 11.26386719 5.0625 12.625 C5.05798828 13.5221875 5.05347656 14.419375 5.04882812 15.34375 C5.03702591 17.56256648 5.02056155 19.78125018 5 22 C5.99 22.33 6.98 22.66 8 23 C9.3170033 25.43346292 10.43455329 27.77110728 11.5 30.3125 C11.80897217 31.0351001 12.11794434 31.7577002 12.4362793 32.50219727 C14.9504704 38.5436015 16.67907973 44.59074602 18 51 C18.20367187 51.85722656 18.40734375 52.71445312 18.6171875 53.59765625 C19.48523165 57.25414361 20 60.19679197 20 64 C16.26147871 64.29321736 13.73566889 64.38535037 10.375 62.625 C3.47213117 54.9955134 0.63428783 45.07195759 0.75 34.9375 C0.73839844 33.9155957 0.73839844 33.9155957 0.7265625 32.87304688 C0.74331029 28.51443457 1.50126323 25.0671826 3 21 C3.43300876 18.72094248 3.43300876 18.72094248 3.625 16.625 C3.810625 14.830625 3.810625 14.830625 4 13 C3.34 13 2.68 13 2 13 C1.7628125 13.82757813 1.525625 14.65515625 1.28125 15.5078125 C-0.48653616 20.32610769 -3.0791512 24.51902388 -5.72265625 28.90234375 C-10.69332807 37.41646478 -12.94228475 47.17404923 -11 57 C-7.55146516 67.63237995 -1.27271372 77.33426429 4.3125 86.9375 C13.15830282 102.23726886 17.30771657 117.74211449 12.9453125 135.4375 C10.56214784 141.89764884 7.22949389 147.93424455 4 154 C3.38299709 155.18431431 2.76706098 156.3691852 2.15234375 157.5546875 C-1.9791751 165.4317659 -6.32062642 173.18883115 -10.6875 180.9375 C-11.2343042 181.90888916 -11.7811084 182.88027832 -12.34448242 183.88110352 C-15.43667009 189.34147508 -18.63096874 194.70580802 -22 200 C-23.9375 199.625 -23.9375 199.625 -26 199 C-27.16159656 196.67680688 -27.12453122 195.29613519 -27.140625 192.7109375 C-27.15996094 191.85113281 -27.17929688 190.99132812 -27.19921875 190.10546875 C-27.23263297 188.30881198 -27.25126753 186.51180928 -27.25390625 184.71484375 C-27.44177879 178.06020068 -29.21965844 174.3634983 -33 169 C-38.01507607 158.83393795 -42 145.42190347 -42 134 C-37.93932978 133.6132695 -34.89386993 133.87082295 -31.51953125 136.328125 C-26.27758088 142.09561795 -22.8793818 150.46913956 -22.8671875 158.2578125 C-22.86525391 159.44310547 -22.86525391 159.44310547 -22.86328125 160.65234375 C-22.86714844 161.46832031 -22.87101562 162.28429687 -22.875 163.125 C-22.86919922 164.36056641 -22.86919922 164.36056641 -22.86328125 165.62109375 C-22.87330665 171.7466133 -22.87330665 171.7466133 -24 174 C-24.06996014 175.70702735 -24.08440154 177.41668003 -24.0625 179.125 C-24.05347656 180.03507813 -24.04445312 180.94515625 -24.03515625 181.8828125 C-24.02355469 182.58148438 -24.01195312 183.28015625 -24 184 C-22.07594988 180.69173791 -20.16215769 177.37764781 -18.25 174.0625 C-17.71117187 173.13630859 -17.17234375 172.21011719 -16.6171875 171.25585938 C-9.35797543 158.64076522 -5.68253907 148.73325787 -8 134 C-9.6585283 128.17654565 -12.86059302 123.12563267 -16 118 C-25.08370963 102.74852286 -32.17126506 90.57593382 -32.5 72.4375 C-32.51901367 71.59896484 -32.53802734 70.76042969 -32.55761719 69.89648438 C-32.43066712 57.73748944 -27.61245088 47.42705873 -21.5625 37.125 C-20.32030936 34.9609393 -19.07812195 32.79687675 -17.8359375 30.6328125 C-17.20397461 29.54258789 -16.57201172 28.45236328 -15.92089844 27.32910156 C-12.79567908 21.91279613 -9.74800231 16.45303956 -6.6875 11 C-5.61011307 9.08218579 -4.53087257 7.16541091 -3.44921875 5.25 C-2.77379028 4.05117187 -2.77379028 4.05117187 -2.0847168 2.828125 C-1 1 -1 1 0 0 Z " fill="#8CC839" transform="translate(226,0)"/>
<path d="M0 0 C4.16302206 1.361442 7.09135089 4.57412779 10.06640625 7.67578125 C10.72640625 6.35578125 11.38640625 5.03578125 12.06640625 3.67578125 C14.70640625 3.67578125 17.34640625 3.67578125 20.06640625 3.67578125 C20.15948915 13.00375388 20.23036399 22.33156421 20.27365494 31.65990162 C20.29444276 35.99242995 20.32259717 40.32463823 20.36816406 44.65698242 C20.411939 48.84563486 20.4356094 53.03398136 20.44591522 57.22284508 C20.45325029 58.81309506 20.4675725 60.40333016 20.48932648 61.99344826 C20.63768806 73.29767864 19.81445345 83.98273802 12.5390625 93.23828125 C8.73227935 96.95418629 4.23426906 98.86205516 -1.05859375 99.17578125 C-7.67875993 98.32156626 -11.76655069 94.49850559 -15.86328125 89.46875 C-16.93359375 87.67578125 -16.93359375 87.67578125 -16.99609375 84.61328125 C-15.86395616 81.48325379 -14.53196759 78.59455086 -12.93359375 75.67578125 C-9.22705644 76.91129369 -8.2844394 78.64243203 -5.93359375 81.67578125 C-2.83310447 83.22602589 -0.35465157 82.9657014 3.06640625 82.67578125 C6.3474828 80.78004813 7.73990054 79.46210643 9.1953125 75.95703125 C10.13402546 72.42107212 10.26590394 69.45116793 10.19140625 65.80078125 C10.17335938 64.64835937 10.1553125 63.4959375 10.13671875 62.30859375 C10.11351563 61.43976563 10.0903125 60.5709375 10.06640625 59.67578125 C9.53015625 60.60390625 8.99390625 61.53203125 8.44140625 62.48828125 C5.82005792 66.00640663 4.15819307 67.20273799 0.06640625 68.67578125 C-3.7399611 69.23087649 -5.5291016 68.87389985 -8.99609375 67.17578125 C-16.27764104 60.97871973 -19.67593607 51.97346482 -20.93359375 42.67578125 C-21.70518032 28.75754666 -20.90526741 15.75842165 -11.3359375 4.85546875 C-7.88137284 1.4717266 -4.92572569 -0.33737847 0 0 Z " fill="#083B25" transform="translate(80.93359375,95.32421875)"/>
<path d="M0 0 C1.8795907 3.36751422 2.80241833 6.70755173 3.734375 10.44140625 C3.89275345 11.07237717 4.0511319 11.70334808 4.21430969 12.35343933 C4.7314431 14.42186268 5.24104836 16.49204948 5.75 18.5625 C6.10992956 20.01269906 6.46987441 21.46289433 6.82983398 22.91308594 C9.30095478 32.91934835 11.58602052 42.95930606 13.77587891 53.03100586 C15.57933715 61.26761361 17.56212252 69.44971017 19.625 77.625 C20.06803467 79.38130737 20.06803467 79.38130737 20.52001953 81.1730957 C21.08655037 83.41671741 21.65327399 85.66029046 22.22021484 87.90380859 C23.31319089 92.24354631 24.38976127 96.58662198 25.4375 100.9375 C25.74558594 102.20464844 26.05367187 103.47179687 26.37109375 104.77734375 C27 108 27 108 27 113 C23.37 113 19.74 113 16 113 C15.16416026 109.20886976 14.3312164 105.41714402 13.5 101.625 C13.26152344 100.54476562 13.02304687 99.46453125 12.77734375 98.3515625 C12.55175781 97.3203125 12.32617188 96.2890625 12.09375 95.2265625 C11.88427734 94.27346191 11.67480469 93.32036133 11.45898438 92.33837891 C11 90 11 90 11 88 C3.41 88 -4.18 88 -12 88 C-12.33 90.97 -12.66 93.94 -13 97 C-13.64010466 99.88175632 -14.30691948 102.71372116 -15.0625 105.5625 C-15.24876953 106.28501953 -15.43503906 107.00753906 -15.62695312 107.75195312 C-16.07914065 109.50273047 -16.53876175 111.25158525 -17 113 C-20.3 113 -23.6 113 -27 113 C-24.97331697 101.90657711 -22.30031785 91.01905807 -19.53515625 80.08984375 C-16.6138384 68.54023725 -13.87760115 56.94933112 -11.2734375 45.32421875 C-11.04638374 44.31206551 -11.04638374 44.31206551 -10.81474304 43.27946472 C-10.06724216 39.94503687 -9.32364554 36.60986327 -8.58618164 33.27319336 C-6.08779118 22.07508929 -3.16990384 11.02567607 0 0 Z " fill="#0A3D27" transform="translate(27,49)"/>
<path d="M0 0 C2.69972895 1.66568182 4.97295206 3.55487342 7 6 C7 6.66 7 7.32 7 8 C7.66 8 8.32 8 9 8 C9 6.02 9 4.04 9 2 C11.64 2 14.28 2 17 2 C17 22.46 17 42.92 17 64 C14.36 64 11.72 64 9 64 C8.67 61.69 8.34 59.38 8 57 C7.61328125 57.48210937 7.2265625 57.96421875 6.828125 58.4609375 C6.30734375 59.09257812 5.7865625 59.72421875 5.25 60.375 C4.73953125 61.00148437 4.2290625 61.62796875 3.703125 62.2734375 C1.13763602 64.87423138 -1.19996004 65.83635546 -4.75 66.5625 C-10.57562135 65.55421938 -14.36867921 61.12071702 -17.875 56.5625 C-21.23531454 48.90845021 -21.36554456 41.42791352 -21.375 33.1875 C-21.39949219 32.07568359 -21.42398437 30.96386719 -21.44921875 29.81835938 C-21.48373717 19.98636321 -19.36732162 10.7179656 -13 3 C-9.12440419 -0.22966318 -4.91411089 -1.17753223 0 0 Z " fill="#FAC114" transform="translate(299,98)"/>
<path d="M0 0 C1.3417196 4.0251588 0.75492666 7.61181376 0.3125 11.75 C0.24611328 12.53632812 0.17972656 13.32265625 0.11132812 14.1328125 C-0.47974228 19.7363461 -2.02476431 23.23492825 -5 28 C-6.39715697 31.73070639 -6.22030092 35.68244763 -6.25 39.625 C-6.270625 40.28628906 -6.29125 40.94757813 -6.3125 41.62890625 C-6.39346745 52.1749168 -1.93793492 60.48942061 3.3125 69.375 C4.48461366 71.41317722 5.65520643 73.45222989 6.82421875 75.4921875 C8.26357885 77.98875445 9.70305174 80.48525586 11.14306641 82.98144531 C15.75609661 91.09442927 17.57509141 98.85058695 19 108 C23.82642583 98.596484 24.85542738 90.356657 25 80 C25.78375 80.639375 26.5675 81.27875 27.375 81.9375 C29.79539281 83.98142313 29.79539281 83.98142313 32 85 C32.50038746 99.62243348 28.74716838 109.32721759 22 122 C21.38299709 123.18431431 20.76706098 124.3691852 20.15234375 125.5546875 C16.0208249 133.4317659 11.67937358 141.18883115 7.3125 148.9375 C6.7656958 149.90888916 6.2188916 150.88027832 5.65551758 151.88110352 C2.56332991 157.34147508 -0.63096874 162.70580802 -4 168 C-5.9375 167.625 -5.9375 167.625 -8 167 C-9.16159656 164.67680688 -9.12453122 163.29613519 -9.140625 160.7109375 C-9.15996094 159.85113281 -9.17929688 158.99132812 -9.19921875 158.10546875 C-9.23263297 156.30881198 -9.25126753 154.51180928 -9.25390625 152.71484375 C-9.44177879 146.06020068 -11.21965844 142.3634983 -15 137 C-20.01507607 126.83393795 -24 113.42190347 -24 102 C-19.93932978 101.6132695 -16.89386993 101.87082295 -13.51953125 104.328125 C-8.27758088 110.09561795 -4.8793818 118.46913956 -4.8671875 126.2578125 C-4.86525391 127.44310547 -4.86525391 127.44310547 -4.86328125 128.65234375 C-4.86714844 129.46832031 -4.87101562 130.28429687 -4.875 131.125 C-4.86919922 132.36056641 -4.86919922 132.36056641 -4.86328125 133.62109375 C-4.87330665 139.7466133 -4.87330665 139.7466133 -6 142 C-6.06996014 143.70702735 -6.08440154 145.41668003 -6.0625 147.125 C-6.05347656 148.03507813 -6.04445312 148.94515625 -6.03515625 149.8828125 C-6.02355469 150.58148438 -6.01195312 151.28015625 -6 152 C-4.07594988 148.69173791 -2.16215769 145.37764781 -0.25 142.0625 C0.28882813 141.13630859 0.82765625 140.21011719 1.3828125 139.25585938 C8.64202457 126.64076522 12.31746093 116.73325787 10 102 C8.3414717 96.17654565 5.13940698 91.12563267 2 86 C-9.82630392 66.1437286 -17.05005486 49.99719065 -13.4453125 26.36328125 C-10.91163375 16.74736715 -5.2385669 8.34771634 0 0 Z " fill="#549333" transform="translate(208,32)"/>
<path d="M0 0 C2.64 0 5.28 0 8 0 C8.33 25.08 8.66 50.16 9 76 C16.54430617 65.02992452 16.54430617 65.02992452 24 54 C27.16115776 55.36983503 27.9927092 55.9890638 30 59 C29.41255145 64.07001773 25.51006817 67.83664424 22.41796875 71.69140625 C19.59154406 75.40379112 19.59154406 75.40379112 19.02734375 79.9453125 C19.34832031 80.95335938 19.66929687 81.96140625 20 83 C20.59361328 84.8871875 20.59361328 84.8871875 21.19921875 86.8125 C21.68893872 88.21058228 22.18531928 89.60634501 22.6875 91 C22.94934082 91.73677979 23.21118164 92.47355957 23.48095703 93.23266602 C25.70173356 99.3851032 28.22607456 105.37156652 30.8984375 111.33984375 C32 114 32 114 32 116 C29.03 116 26.06 116 23 116 C18.65338587 107.26977928 15.74850362 98.32152079 13 89 C11.02 89.99 11.02 89.99 9 91 C8.67 99.25 8.34 107.5 8 116 C5.36 116 2.72 116 0 116 C0 77.72 0 39.44 0 0 Z " fill="#F9C014" transform="translate(368,46)"/>
<path d="M0 0 C4.06067022 -0.3867305 7.10613007 -0.12917705 10.48046875 2.328125 C15.72241912 8.09561795 19.1206182 16.46913956 19.1328125 24.2578125 C19.13474609 25.44310547 19.13474609 25.44310547 19.13671875 26.65234375 C19.13285156 27.46832031 19.12898438 28.28429687 19.125 29.125 C19.13080078 30.36056641 19.13080078 30.36056641 19.13671875 31.62109375 C19.12669335 37.7466133 19.12669335 37.7466133 18 40 C17.93003986 41.70702735 17.91559846 43.41668003 17.9375 45.125 C17.94652344 46.03507812 17.95554688 46.94515625 17.96484375 47.8828125 C17.97644531 48.58148438 17.98804688 49.28015625 18 50 C19.92405012 46.69173791 21.83784231 43.37764781 23.75 40.0625 C24.28882813 39.13630859 24.82765625 38.21011719 25.3828125 37.25585938 C32.41669402 25.07834658 32.41669402 25.07834658 34.75 11.4375 C34.79447266 10.3537207 34.79447266 10.3537207 34.83984375 9.24804688 C34.90933183 7.49926353 34.95706413 5.74963662 35 4 C36.65614657 3.61781233 38.32457024 3.28604898 40 3 C43.08824731 6.08824731 41.55961887 15.67195117 41.58276367 19.81347656 C41.40785476 29.16315282 40.04182758 34.44179943 34.40087891 42.00292969 C31.29658665 46.42835852 28.71242177 51.20354523 26 55.875 C24.85627258 57.81114139 23.71060727 59.74614008 22.5625 61.6796875 C22.06878906 62.51226074 21.57507813 63.34483398 21.06640625 64.20263672 C20.71449219 64.7957666 20.36257812 65.38889648 20 66 C18.0625 65.625 18.0625 65.625 16 65 C14.83840344 62.67680688 14.87546878 61.29613519 14.859375 58.7109375 C14.84003906 57.85113281 14.82070312 56.99132812 14.80078125 56.10546875 C14.76736703 54.30881198 14.74873247 52.51180928 14.74609375 50.71484375 C14.55822121 44.06020068 12.78034156 40.3634983 9 35 C3.98492393 24.83393795 0 11.42190347 0 0 Z " fill="#70B12F" transform="translate(184,134)"/>
<path d="M0 0 C0.66 0 1.32 0 2 0 C2.09796875 0.82242188 2.1959375 1.64484375 2.296875 2.4921875 C2.44640625 3.60851563 2.5959375 4.72484375 2.75 5.875 C2.88921875 6.96554688 3.0284375 8.05609375 3.171875 9.1796875 C5.18051777 18.44597347 9.70256915 26.37215299 14.4375 34.5 C28.55009092 58.89253345 28.55009092 58.89253345 27 75 C25.75124559 79.2308545 24.20988624 83.17622713 22 87 C21.01 87.495 21.01 87.495 20 88 C19.87625 87.030625 19.7525 86.06125 19.625 85.0625 C17.74004868 72.17170792 12.69488377 62.24791718 6.13671875 51.12109375 C5.64816406 50.29005127 5.15960938 49.45900879 4.65625 48.6027832 C3.70686988 47.00117767 2.74539387 45.40665366 1.76953125 43.82104492 C-4.76277754 32.94291003 -7.22101686 20.83796569 -4.390625 8.30078125 C-3.28355699 5.24504762 -1.80151979 2.70227969 0 0 Z " fill="#F7FCF4" transform="translate(206,53)"/>
<path d="M0 0 C2.97 0 5.94 0 9 0 C9 8.91 9 17.82 9 27 C11.97 27 14.94 27 18 27 C18 30.96 18 34.92 18 39 C15.03 39 12.06 39 9 39 C9 55.5 9 72 9 89 C6.03 89 3.06 89 0 89 C0 72.5 0 56 0 39 C-1.98 39 -3.96 39 -6 39 C-6 35.04 -6 31.08 -6 27 C-4.02 27 -2.04 27 0 27 C0 18.09 0 9.18 0 0 Z " fill="#F9C62A" transform="translate(253,73)"/>
<path d="M0 0 C3.70611006 1.29120595 6.33403959 3.05228711 8.625 6.3125 C9.17738597 10.27126614 7.80095351 12.46736042 6 16 C3.53199953 14.84826645 1.95216435 13.95216435 0 12 C-3.87891773 11.3966128 -5.47408112 11.62084918 -8.6875 13.9375 C-13.91998857 20.86701189 -14.92097271 28.47793251 -14 37 C-12.84631069 42.06995439 -11.05160061 46.7542948 -8 51 C-5.17998673 52.41000664 -3.12992745 52.24548451 0 52 C2.81780534 50.61114752 2.81780534 50.61114752 5 49 C6.68442774 51.8972157 7.94082079 54.19121742 8.1875 57.5625 C6.24376468 61.55227251 2.96871568 63.23295963 -1 65 C-4.89033906 65.91953469 -6.82566537 65.69770486 -10.26171875 63.65625 C-16.85122565 58.51534544 -20.62791821 52.2472443 -22 44 C-23.32261216 30.635695 -23.81011845 15.80535789 -14.9375 4.875 C-10.34736808 -0.01951732 -6.50686699 -0.87405676 0 0 Z " fill="#FAC012" transform="translate(349,99)"/>
<path d="M0 0 C0 5.61 0 11.22 0 17 C-2.31 17.99 -4.62 18.98 -7 20 C-14.06071759 27.37121962 -12.78193565 39.17968924 -12.8125 48.625 C-12.83568134 50.31383385 -12.86105414 52.00263912 -12.88867188 53.69140625 C-12.95105621 57.79437772 -12.98375962 61.89659705 -13 66 C-16.3 66 -19.6 66 -23 66 C-23 45.21 -23 24.42 -23 3 C-20.03 3 -17.06 3 -14 3 C-13.67 6.96 -13.34 10.92 -13 15 C-12.505 13.824375 -12.01 12.64875 -11.5 11.4375 C-9.70084825 7.79373058 -4.61786011 0 0 0 Z " fill="#0F402A" transform="translate(137,96)"/>
<path d="M0 0 C4.55670066 0.08762886 6.47190844 0.49537918 9.8125 3.6875 C13.8509021 9.8027946 14.36379321 15.24747969 14.375 22.375 C14.39949219 23.18710938 14.42398437 23.99921875 14.44921875 24.8359375 C14.4817158 31.59532379 12.77496479 36.93796989 8.1875 42 C4.74047407 43.57578328 2.745125 43.71028233 -1 43 C-6.29748023 38.22140735 -8.66656117 32.27407955 -9.21484375 25.24609375 C-9.44318794 18.09435377 -9.20025643 10.24743513 -4.72265625 4.3046875 C-3.375 2.9375 -3.375 2.9375 -1 1 C-0.67 0.67 -0.34 0.34 0 0 Z " fill="#FEFDF5" transform="translate(294,109)"/>
<path d="M0 0 C4.31209139 2.60731107 6.13946103 5.37493137 8 10 C8.44423779 13.13508021 8.46484746 16.21263912 8.4375 19.375 C8.4674707 20.59316406 8.4674707 20.59316406 8.49804688 21.8359375 C8.492649 28.57247947 6.79167874 34.02220935 2.125 39 C-0.87689801 40.41265789 -2.71861729 40.53573595 -6 40 C-10.20798961 36.77061262 -12.42831521 33.00172568 -14 28 C-14.28070478 25.25074435 -14.43164396 22.79581682 -14.375 20.0625 C-14.36557373 19.3602832 -14.35614746 18.65806641 -14.34643555 17.93457031 C-14.1512337 11.23704716 -13.34654521 6.53680563 -8.6875 1.5 C-5.40313728 -0.33313268 -3.70767977 -0.61794663 0 0 Z " fill="#F9FCFB" transform="translate(84,110)"/>
<path d="M0 0 C1.65 0 3.3 0 5 0 C5 25.08 5 50.16 5 76 C6.98 76 8.96 76 11 76 C11.33 76.66 11.66 77.32 12 78 C13.485 77.01 13.485 77.01 15 76 C16.125 81.75 16.125 81.75 15 84 C14.030625 84.103125 13.06125 84.20625 12.0625 84.3125 C11.051875 84.539375 10.04125 84.76625 9 85 C7.54708727 87.46255685 7.54708727 87.46255685 7 90 C6.34 90 5.68 90 5 90 C5 97.59 5 105.18 5 113 C3.35 113 1.7 113 0 113 C0 75.71 0 38.42 0 0 Z " fill="#FDC008" transform="translate(369,48)"/>
<path d="M0 0 C0.99 0 1.98 0 3 0 C3.05418326 2.08304538 3.09287551 4.16649768 3.125 6.25 C3.14820313 7.41015625 3.17140625 8.5703125 3.1953125 9.765625 C3.0103949 12.82786046 2.60823023 14.44202751 1 17 C3.99332739 16.0022242 4.94766315 15.2477975 7 13 C7.57024566 28.42831326 6.86835476 37.91014732 -3.29296875 50.1640625 C-3.85628906 50.76992187 -4.41960937 51.37578125 -5 52 C-5.33 52 -5.66 52 -6 52 C-6 47.05 -6 42.1 -6 37 C-6.99 36.67 -7.98 36.34 -9 36 C-10.5703125 34.0390625 -10.5703125 34.0390625 -12.125 31.625 C-12.64320313 30.83351563 -13.16140625 30.04203125 -13.6953125 29.2265625 C-16.20091016 24.95054254 -16.12080625 21.11603784 -16.0625 16.3125 C-16.05798828 15.61060547 -16.05347656 14.90871094 -16.04882812 14.18554688 C-16.03706927 12.45699462 -16.01913454 10.72848635 -16 9 C-14.83404297 10.18142578 -14.83404297 10.18142578 -13.64453125 11.38671875 C-11.50930659 13.49671181 -9.44536039 15.27919083 -7 17 C-6.87044922 16.1646875 -6.87044922 16.1646875 -6.73828125 15.3125 C-5.68576093 9.59605936 -4.00928829 4.36619823 0 0 Z " fill="#EBFAF1" transform="translate(152,43)"/>
<path d="M0 0 C3.3 0 6.6 0 10 0 C10 20.79 10 41.58 10 63 C6.7 63 3.4 63 0 63 C0 42.21 0 21.42 0 0 Z " fill="#14432F" transform="translate(147,99)"/>
<path d="M0 0 C0.33 0 0.66 0 1 0 C1.00257813 0.80824219 1.00515625 1.61648437 1.0078125 2.44921875 C1.04648438 3.51785156 1.08515625 4.58648437 1.125 5.6875 C1.14820313 6.74324219 1.17140625 7.79898438 1.1953125 8.88671875 C2.13378965 12.51762308 3.51031313 13.4064845 6.43994141 15.58520508 C9.38256986 18.25383292 10.59808715 21.90288515 12.125 25.5 C15.43800133 32.92974853 19.17290325 39.9365443 23.3125 46.9375 C28.96132631 56.60375752 33.88722779 65.46603873 33 77 C31.8553125 76.5359375 31.8553125 76.5359375 30.6875 76.0625 C28.81210323 75.32106407 26.91315348 74.63771783 25 74 C24.29248047 72.15429687 24.29248047 72.15429687 23.7421875 69.71875 C21.91684263 63.04401686 18.59230857 57.44704693 15.125 51.5 C4.85260639 33.65847425 -0.2880732 20.7092626 0 0 Z " fill="#6BAA33" transform="translate(207,40)"/>
<path d="M0 0 C1.9375 0.375 1.9375 0.375 4 1 C5.54689429 4.09378858 5.65859931 6.67025123 5 10 C3.14969537 14.06732259 0.83823452 17.82218309 -1.5 21.625 C-2.13695801 22.6871875 -2.77391602 23.749375 -3.43017578 24.84375 C-5.2712942 27.90557439 -7.13224897 30.9543692 -9 34 C-9.90400444 35.48676118 -10.80770268 36.97370863 -11.7109375 38.4609375 C-13.45428463 41.31975675 -15.21734535 44.16546838 -17 47 C-18.9375 46.625 -18.9375 46.625 -21 46 C-22.5433369 42.91332621 -22.24222776 40.41633797 -22 37 C-20.62646484 33.77783203 -20.62646484 33.77783203 -18.7109375 30.5078125 C-18.19957748 29.62245316 -18.19957748 29.62245316 -17.67788696 28.71920776 C-16.59086167 26.84592116 -15.4831796 24.98583235 -14.375 23.125 C-13.65362489 21.88488324 -12.93356127 20.64400262 -12.21484375 19.40234375 C-8.36352126 12.78640909 -4.35582951 6.2987175 0 0 Z " fill="#448136" transform="translate(209,0)"/>
<path d="M0 0 C2 0.3125 2 0.3125 4 1 C5.53733842 4.07467685 5.23061285 6.59945632 5 10 C3.71826172 13.02270508 3.71826172 13.02270508 1.9296875 16.01953125 C1.28 17.12490234 0.6303125 18.23027344 -0.0390625 19.36914062 C-0.7340273 20.51713764 -1.42934147 21.66492324 -2.125 22.8125 C-2.79015625 23.93720703 -3.4553125 25.06191406 -4.140625 26.22070312 C-5.45420016 28.43703925 -6.77853263 30.64703984 -8.11425781 32.85009766 C-9.34006083 34.89765211 -10.5342259 36.96460027 -11.69042969 39.05224609 C-12.4585498 40.42437256 -12.4585498 40.42437256 -13.2421875 41.82421875 C-13.68159668 42.63334717 -14.12100586 43.44247559 -14.57373047 44.27612305 C-15.04439941 44.84500244 -15.51506836 45.41388184 -16 46 C-17.32 46 -18.64 46 -20 46 C-22.34429106 42.4835634 -22.39545343 41.13927166 -22 37 C-20.82592773 34.30615234 -20.82592773 34.30615234 -19.18359375 31.5859375 C-18.58353516 30.57660156 -17.98347656 29.56726563 -17.36523438 28.52734375 C-16.72908203 27.48707031 -16.09292969 26.44679687 -15.4375 25.375 C-14.82841797 24.35792969 -14.21933594 23.34085938 -13.59179688 22.29296875 C-12.36165679 20.23883007 -11.12646318 18.18770927 -9.88623047 16.13964844 C-7.32981675 11.88447365 -4.84653484 7.58816134 -2.36743164 3.28759766 C-1 1 -1 1 0 0 Z " fill="#498736" transform="translate(238,153)"/>
<path d="M0 0 C1.60989128 27.44864634 1.60989128 27.44864634 -8 40 C-9.34879804 42.11521787 -10.68326231 44.23967692 -12 46.375 C-12.99661211 47.91885894 -13.99522632 49.4614403 -15 51 C-18.465 49.515 -18.465 49.515 -22 48 C-21.39859404 43.94235458 -20.07931111 40.94395855 -18.09375 37.3671875 C-17.51496094 36.31402344 -16.93617188 35.26085937 -16.33984375 34.17578125 C-15.73269531 33.08652344 -15.12554687 31.99726563 -14.5 30.875 C-13.30001432 28.70687301 -12.10200277 26.53765188 -10.90625 24.3671875 C-10.37322266 23.40925293 -9.84019531 22.45131836 -9.29101562 21.46435547 C-6.60332866 16.3339636 -6.68382899 11.27813029 -6.48242188 5.62890625 C-6.39129606 3.74793188 -6.20313498 1.87219248 -6 0 C-3.50907189 -1.24546405 -2.58919267 -0.7767578 0 0 Z " fill="#6EAD37" transform="translate(225,138)"/>
<path d="M0 0 C2.64 0 5.28 0 8 0 C8.33 25.74 8.66 51.48 9 78 C8.01 78 7.02 78 6 78 C6 52.92 6 27.84 6 2 C4.35 2 2.7 2 1 2 C1 39.29 1 76.58 1 115 C2.65 115 4.3 115 6 115 C6 107.41 6 99.82 6 92 C6.66 92 7.32 92 8 92 C8 99.92 8 107.84 8 116 C5.36 116 2.72 116 0 116 C0 77.72 0 39.44 0 0 Z " fill="#F4C639" transform="translate(368,46)"/>
<path d="M0 0 C1.175625 0.9590625 1.175625 0.9590625 2.375 1.9375 C4.79539281 3.98142313 4.79539281 3.98142313 7 5 C7.61703402 23.03110529 0.83009857 35.71713708 -8 51 C-9.30120067 48.39759867 -8.78052242 47.36867474 -8.125 44.5625 C-7.31563642 40.87539925 -6.86795796 37.39274352 -6.6875 33.625 C-6.36882234 29.32585803 -5.33767541 26.2037382 -3.5 22.3125 C-0.17570492 15.04120327 -0.10980638 7.86613013 0 0 Z " fill="#327133" transform="translate(233,112)"/>
<path d="M0 0 C1.65 4.95 3.3 9.9 5 15 C4.34 12.03 3.68 9.06 3 6 C4.98 6 6.96 6 9 6 C11.12406054 9.62013796 11.85012346 13.42794469 12.625 17.5 C12.7590625 18.16386719 12.893125 18.82773437 13.03125 19.51171875 C13.66826364 22.7682885 14 25.66414099 14 29 C10.26147871 29.29321736 7.73566889 29.38535037 4.375 27.625 C-0.99154029 21.69356073 -4.15627381 14.28327401 -4.0625 6.3125 C-4.05347656 5.31863281 -4.04445312 4.32476562 -4.03515625 3.30078125 C-4.02355469 2.54152344 -4.01195312 1.78226563 -4 1 C-2 0 -2 0 0 0 Z " fill="#579435" transform="translate(232,35)"/>
<path d="M0 0 C0.33 0 0.66 0 1 0 C1.57024566 15.42831326 0.86835476 24.91014732 -9.29296875 37.1640625 C-9.85628906 37.76992187 -10.41960937 38.37578125 -11 39 C-11.33 39 -11.66 39 -12 39 C-12.14723105 35.68798092 -12.23469907 32.37681941 -12.3125 29.0625 C-12.35439453 28.13630859 -12.39628906 27.21011719 -12.43945312 26.25585938 C-12.60219339 16.97966441 -8.92713976 11.05904479 -3.25 3.9375 C-2.36054688 2.80634766 -2.36054688 2.80634766 -1.453125 1.65234375 C-0.97359375 1.10707031 -0.4940625 0.56179687 0 0 Z " fill="#15432F" transform="translate(158,56)"/>
<path d="M0 0 C0.66 0.33 1.32 0.66 2 1 C2.77783203 3.4050293 2.77783203 3.4050293 3.5078125 6.57421875 C3.77207031 7.71697266 4.03632813 8.85972656 4.30859375 10.03710938 C4.57800781 11.24173828 4.84742188 12.44636719 5.125 13.6875 C5.40214844 14.87279297 5.67929687 16.05808594 5.96484375 17.27929688 C7.21591441 22.77353084 8 27.30183329 8 33 C3.05 33 -1.9 33 -7 33 C-6.30564279 25.8279053 -4.66237462 18.98754312 -2.9375 12 C-2.65583984 10.84371094 -2.37417969 9.68742187 -2.08398438 8.49609375 C-1.39328783 5.66306724 -0.6985301 2.83110327 0 0 Z " fill="#EBF2EF" transform="translate(26,89)"/>
<path d="M0 0 C2 0 2 0 4.125 2.0625 C4.56070313 2.5265625 4.99640625 2.990625 5.4453125 3.46875 C6.99855899 5.06334572 6.99855899 5.06334572 8.9296875 6.46875 C15.96180464 11.88215338 19.2956761 19.35410687 21 28 C21.12205329 30.67540816 21.04467313 33.31961238 21 36 C20.236875 35.690625 19.47375 35.38125 18.6875 35.0625 C16.81210323 34.32106407 14.91315348 33.63771783 13 33 C12.40234375 31.34765625 12.40234375 31.34765625 11.9375 29.0625 C10.22059275 22.55334613 6.83517134 17.06703356 3.40405273 11.33422852 C-0.67124653 4.36746116 -0.67124653 4.36746116 0 0 Z " fill="#5A9835" transform="translate(219,81)"/>
<path d="M0 0 C4.8828125 1.3671875 4.8828125 1.3671875 7 2 C8.01320312 2.24363281 9.02640625 2.48726563 10.0703125 2.73828125 C13 4 13 4 14.609375 6.36328125 C18.5642251 16.58900669 21.38524915 27.93837815 20 39 C19.34 40.32 18.68 41.64 18 43 C17.67 37.39 17.34 31.78 17 26 C16.01 25.67 15.02 25.34 14 25 C14 28.96 14 32.92 14 37 C13.67 37 13.34 37 13 37 C12.9484375 36.1028125 12.896875 35.205625 12.84375 34.28125 C11.92285135 24.15136481 8.89852018 16.59393982 3.96533203 7.75341797 C2.56413244 5.20829518 1.28139142 2.60696876 0 0 Z " fill="#5F9D35" transform="translate(207,112)"/>
<path d="M0 0 C1.3417196 4.0251588 0.75492666 7.61181376 0.3125 11.75 C0.24611328 12.53632812 0.17972656 13.32265625 0.11132812 14.1328125 C-0.47935712 19.73269466 -2.00712289 23.24660695 -5 28 C-7.02870722 33.41654835 -7.49636921 39.27451317 -8 45 C-8.33 45 -8.66 45 -9 45 C-9.33 41.04 -9.66 37.08 -10 33 C-10.99 33.495 -10.99 33.495 -12 34 C-13.79968479 20.80231153 -7.21620804 10.49925764 0 0 Z " fill="#3F7D34" transform="translate(208,32)"/>
<path d="M0 0 C0.66 0 1.32 0 2 0 C1.05061641 6.53101451 -2.54259767 11.68958253 -5.8125 17.3125 C-6.44220703 18.43462891 -7.07191406 19.55675781 -7.72070312 20.71289062 C-8.33494141 21.77314453 -8.94917969 22.83339844 -9.58203125 23.92578125 C-10.14124268 24.89942627 -10.7004541 25.87307129 -11.27661133 26.8762207 C-12.12968872 27.92749146 -12.12968872 27.92749146 -13 29 C-14.32 29 -15.64 29 -17 29 C-19.37104692 25.44342962 -19.48401112 24.19476306 -19 20 C-17.94486229 17.26234539 -16.74458851 15.45185412 -15 13 C-13.34561387 12.30341637 -11.67745682 11.63903117 -10 11 C-8.32020869 9.23310839 -6.82321702 7.38885578 -5.33203125 5.4609375 C-4.89246094 4.97882813 -4.45289063 4.49671875 -4 4 C-3.34 4 -2.68 4 -2 4 C-2 3.34 -2 2.68 -2 2 C-1.34 2 -0.68 2 0 2 C0 1.34 0 0.68 0 0 Z " fill="#3F7B37" transform="translate(235,170)"/>
<path d="M0 0 C2.50371392 1.09357619 3.91625528 2.47227121 5.7890625 4.453125 C6.40265625 5.09378906 7.01625 5.73445313 7.6484375 6.39453125 C8.10734375 6.88824219 8.56625 7.38195312 9.0390625 7.890625 C7.73461682 10.74177055 6.33353819 12.93810246 4.1640625 15.203125 C3.67164063 15.73550781 3.17921875 16.26789063 2.671875 16.81640625 C1.0390625 17.890625 1.0390625 17.890625 -0.921875 17.78125 C-3.42558892 16.68767381 -4.83813028 15.30897879 -6.7109375 13.328125 C-7.32453125 12.68746094 -7.938125 12.04679687 -8.5703125 11.38671875 C-9.02921875 10.89300781 -9.488125 10.39929688 -9.9609375 9.890625 C-8.65649182 7.03947945 -7.25541319 4.84314754 -5.0859375 2.578125 C-4.34730469 1.77955078 -4.34730469 1.77955078 -3.59375 0.96484375 C-1.9609375 -0.109375 -1.9609375 -0.109375 0 0 Z " fill="#89C830" transform="translate(311.9609375,64.109375)"/>
<path d="M0 0 C1.67542976 0.28604898 3.34385343 0.61781233 5 1 C5.66 3.31 6.32 5.62 7 8 C6.01 8 5.02 8 4 8 C4 7.01 4 6.02 4 5 C4 6.32 4 7.64 4 9 C4.75647369 10.95129646 4.75647369 10.95129646 5.8125 12.9375 C9.80218025 21.55577726 11.48069833 30.54626619 11 40 C3.66201737 34.07575714 0.82312115 20.9656042 -0.24975586 12.06445312 C-0.61068667 8.36570456 -0.90469023 4.71708118 -1 1 C-0.67 0.67 -0.34 0.34 0 0 Z " fill="#70B12E" transform="translate(187,136)"/>
<path d="M0 0 C0.66 0.99 1.32 1.98 2 3 C2.99 3.33 3.98 3.66 5 4 C3.89302968 7.04416839 2.58765168 9.70454519 0.875 12.4375 C-1.05615951 15.75217676 -1.51715426 18.12134306 -1 22 C-0.34 23.32 0.32 24.64 1 26 C-3.95 26 -8.9 26 -14 26 C-9.63995334 17.10194559 -5.11614514 8.49062384 0 0 Z " fill="#F5FBEE" transform="translate(218,174)"/>
<path d="M0 0 C6.87896334 7.95380136 7.60070781 21.74534225 9.04882812 31.82836914 C9.57410193 36.04176678 9.57410193 36.04176678 11 40 C11.99 40.33 12.98 40.66 14 41 C17 42 17 42 18 44 C16.78515625 46.3828125 16.78515625 46.3828125 15.0625 49.125 C14.21365234 50.49011719 14.21365234 50.49011719 13.34765625 51.8828125 C12.90292969 52.58148438 12.45820313 53.28015625 12 54 C10.0625 53.625 10.0625 53.625 8 53 C6.62464021 50.24928043 6.74808561 47.87906549 6.60546875 44.8046875 C6.53900146 43.53810303 6.47253418 42.27151855 6.40405273 40.96655273 C6.36915741 40.29743866 6.33426208 39.62832458 6.29830933 38.93893433 C5.66831131 27.20459231 4.47068219 16.28347326 1 5 C0.64432734 3.33795733 0.30212791 1.67260504 0 0 Z " fill="#84C62D" transform="translate(192,146)"/>
<path d="M0 0 C0.33 0 0.66 0 1 0 C1.33 2.64 1.66 5.28 2 8 C2.66 7.67 3.32 7.34 4 7 C6.42301651 10.83221858 6.62755515 14.97260169 7.0625 19.375 C7.21869943 20.86212186 7.37622802 22.34910479 7.53515625 23.8359375 C7.61008301 24.54202148 7.68500977 25.24810547 7.76220703 25.97558594 C8.07845856 28.66794492 8.52148978 31.33219966 9 34 C8.67 33.34 8.34 32.68 8 32 C5.57540213 31.16507646 5.57540213 31.16507646 3 31 C2.34 31.66 1.68 32.32 1 33 C-1.07832113 27.03612198 -1.27110411 21.65850866 -1.1875 15.375 C-1.18685547 14.446875 -1.18621094 13.51875 -1.18554688 12.5625 C-1.15753732 8.21790624 -0.94777997 4.25531933 0 0 Z " fill="#4D8939" transform="translate(195,57)"/>
<path d="M0 0 C2.38792756 1.60819611 4.18117351 2.82949709 6 5 C6.49788731 11.47253506 2.6870961 16.02749425 -1 21 C-3.31 20.01 -5.62 19.02 -8 18 C-7.39733215 13.49272353 -5.63400206 10.1412037 -3.4375 6.1875 C-2.9434668 5.2912793 -2.9434668 5.2912793 -2.43945312 4.37695312 C-1.63226733 2.91466002 -0.81695083 1.4568601 0 0 Z " fill="#7DBB33" transform="translate(211,168)"/>
<path d="M0 0 C6.11074813 6.02967684 9.17567875 9.61000513 9.27026367 18.20385742 C9.24060078 21.47356543 9.14118565 24.73312097 9 28 C4.0242326 23.17027189 0.09817017 18.59302822 -0.09765625 11.42578125 C-0.09103244 10.05465342 -0.07914198 8.68354283 -0.0625 7.3125 C-0.05798828 6.61060547 -0.05347656 5.90871094 -0.04882812 5.18554688 C-0.03706927 3.45699462 -0.01913454 1.72848635 0 0 Z " fill="#067D36" transform="translate(136,52)"/>
<path d="M0 0 C2 0.3125 2 0.3125 4 1 C5.61380195 4.22760391 5.39935648 6.40579169 5 10 C3.25712032 13.20120758 1.20695448 16.10337225 -1 19 C-4.875 17.25 -4.875 17.25 -6 15 C-6.99 15.495 -6.99 15.495 -8 16 C-7.42070126 11.97387377 -6.14350034 9.19196689 -4 5.75 C-3.46375 4.87859375 -2.9275 4.0071875 -2.375 3.109375 C-1 1 -1 1 0 0 Z " fill="#3F7B39" transform="translate(209,0)"/>
<path d="M0 0 C0.78375 0.639375 1.5675 1.27875 2.375 1.9375 C4.79539281 3.98142313 4.79539281 3.98142313 7 5 C7.2494783 12.29031024 6.72330907 18.90673679 5 26 C4.67 25.01 4.34 24.02 4 23 C0.99152582 21.77479736 0.99152582 21.77479736 -2 21 C-1.84660156 20.34644531 -1.69320312 19.69289062 -1.53515625 19.01953125 C-0.86620406 15.24507841 -0.64592703 11.51094004 -0.4375 7.6875 C-0.39431641 6.94693359 -0.35113281 6.20636719 -0.30664062 5.44335938 C-0.20129568 3.62908536 -0.10021684 1.8145645 0 0 Z " fill="#458335" transform="translate(233,112)"/>
<path d="M0 0 C6 6 6 6 6.02172852 7.85766602 C5.97459717 8.64842529 5.92746582 9.43918457 5.87890625 10.25390625 C5.83056641 11.10791016 5.78222656 11.96191406 5.73242188 12.84179688 C5.64831055 14.18854492 5.64831055 14.18854492 5.5625 15.5625 C5.51029297 16.46419922 5.45808594 17.36589844 5.40429688 18.29492188 C5.27419751 20.5302655 5.13922064 22.7652089 5 25 C-0.67131206 21.25887168 -0.67131206 21.25887168 -1.51123047 18.04199219 C-1.62644167 15.79409373 -1.57359544 13.62153324 -1.4375 11.375 C-1.41880859 10.611875 -1.40011719 9.84875 -1.38085938 9.0625 C-1.27587668 5.82789814 -1.0274425 3.08232749 0 0 Z " fill="#7BBD2D" transform="translate(209,32)"/>
<path d="M0 0 C3.27212129 2.68077407 4.64584614 6.19986853 6.25 10 C6.53101563 10.6290625 6.81203125 11.258125 7.1015625 11.90625 C9.12326067 16.630218 9.12326067 16.630218 8 20 C6.35 19.67 4.7 19.34 3 19 C3.22816406 19.54269531 3.45632812 20.08539063 3.69140625 20.64453125 C3.97886719 21.35996094 4.26632813 22.07539062 4.5625 22.8125 C4.85253906 23.52019531 5.14257812 24.22789063 5.44140625 24.95703125 C6 27 6 27 5 30 C4.34634601 28.46163292 3.70246397 26.91911234 3.0625 25.375 C2.70285156 24.51648438 2.34320313 23.65796875 1.97265625 22.7734375 C0.08413807 17.38850615 -0.11602605 12.29876141 -0.0625 6.625 C-0.05347656 5.37976563 -0.04445312 4.13453125 -0.03515625 2.8515625 C-0.02355469 1.91054688 -0.01195312 0.96953125 0 0 Z " fill="#74B040" transform="translate(232,22)"/>
<path d="M0 0 C0.66 0.66 1.32 1.32 2 2 C4.31 1.34 6.62 0.68 9 0 C9.33 0.66 9.66 1.32 10 2 C8.75506252 4.28974316 7.47358472 6.44190034 6.0625 8.625 C5.67642578 9.23601563 5.29035156 9.84703125 4.89257812 10.4765625 C3.93553674 11.9889242 2.96867189 13.49506117 2 15 C0.0625 14.625 0.0625 14.625 -2 14 C-3.53214888 10.93570224 -3.22938548 8.3834358 -3 5 C-1.5 2.0625 -1.5 2.0625 0 0 Z " fill="#4E8A39" transform="translate(190,32)"/>
<path d="M0 0 C2.27292941 1.01889939 3.83024561 1.80902631 5.5 3.6875 C6.91112661 5.22346302 6.91112661 5.22346302 8.9375 4.9375 C11.54317359 3.75310292 13.09490208 2.10921555 15 0 C16.32 0.66 17.64 1.32 19 2 C15.65996398 6.32239956 12.67248931 9.17477391 8 12 C5.03 9.36 2.06 6.72 -1 4 C-0.67 2.68 -0.34 1.36 0 0 Z " fill="#8FC542" transform="translate(303,78)"/>
<path d="M0 0 C2.95409701 1.37154504 5.44008376 2.98863724 8 5 C10.88437779 3.70700306 12.87219421 2.34058637 15 0 C15.99 0.33 16.98 0.66 18 1 C16.46583702 4.98882376 13.5752926 8.64783382 10 11 C6.38134286 10.79816255 4.6625218 8.98920575 2.25 6.4375 C1.63640625 5.79683594 1.0228125 5.15617187 0.390625 4.49609375 C-0.29773438 3.75552734 -0.29773438 3.75552734 -1 3 C-0.67 2.01 -0.34 1.02 0 0 Z " fill="#8BC23B" transform="translate(303,86)"/>
<path d="M0 0 C0.33 0 0.66 0 1 0 C1.546544 7.28725335 1.53979139 12.55679133 -2.7109375 18.671875 C-3.34902344 19.32929687 -3.34902344 19.32929687 -4 20 C-4.66 20 -5.32 20 -6 20 C-6.76939893 12.37725139 -6.00608396 7.78599041 -1.41015625 1.58203125 C-0.94480469 1.05996094 -0.47945312 0.53789063 0 0 Z " fill="#96CA4D" transform="translate(152,44)"/>
<path d="M0 0 C2.31 0.66 4.62 1.32 7 2 C7.76173392 6.3164922 8.16063604 9.74433453 7 14 C6.443125 13.731875 5.88625 13.46375 5.3125 13.1875 C4.549375 13.125625 3.78625 13.06375 3 13 C2.175 13.825 1.35 14.65 0.5 15.5 C-2 18 -2 18 -4.0625 18.0625 C-6.47825735 16.73772984 -8.09231411 14.97127542 -10 13 C-10.66 13 -11.32 13 -12 13 C-12.66 13.99 -13.32 14.98 -14 16 C-14.20086443 12.28400809 -14.1519437 11.22791555 -12 8 C-11.54109375 8.51691406 -11.0821875 9.03382812 -10.609375 9.56640625 C-9.99578125 10.22511719 -9.3821875 10.88382813 -8.75 11.5625 C-8.14671875 12.22378906 -7.5434375 12.88507813 -6.921875 13.56640625 C-5.12753502 15.22105777 -5.12753502 15.22105777 -2.96875 14.90625 C-0.72882168 13.87517188 0.56879418 12.73333349 2.25 10.9375 C2.77078125 10.38964844 3.2915625 9.84179688 3.828125 9.27734375 C4.21484375 8.85582031 4.6015625 8.43429688 5 8 C3.62845496 5.04590299 2.01136276 2.55991624 0 0 Z " fill="#E7FCC0" transform="translate(315,66)"/>
<path d="M0 0 C8.40234455 9.76295148 8.46479392 27.75903081 10 40 C9.01 40.495 9.01 40.495 8 41 C8 44.3 8 47.6 8 51 C7.67 51 7.34 51 7 51 C6.94054199 49.7625 6.94054199 49.7625 6.87988281 48.5 C5.76920444 26.47432093 5.76920444 26.47432093 1 5 C0.64432734 3.33795733 0.30212791 1.67260504 0 0 Z " fill="#A7D276" transform="translate(192,146)"/>
<path d="M0 0 C0.99443769 2.98331306 1.02452065 4.20838759 0.66015625 7.23046875 C0.56669922 8.03291016 0.47324219 8.83535156 0.37695312 9.66210938 C0.22129883 10.91217773 0.22129883 10.91217773 0.0625 12.1875 C-0.03740234 13.03248047 -0.13730469 13.87746094 -0.24023438 14.74804688 C-0.48757108 16.83274197 -0.74301041 18.91647284 -1 21 C-1.99 20.67 -2.98 20.34 -4 20 C-4 18.02 -4 16.04 -4 14 C-5.32 14.99 -6.64 15.98 -8 17 C-7.41734728 12.57676318 -5.73233789 9.4844136 -3.4375 5.6875 C-2.79683594 4.61886719 -2.15617188 3.55023438 -1.49609375 2.44921875 C-1.00238281 1.64097656 -0.50867188 0.83273438 0 0 Z " fill="#38762C" transform="translate(208,32)"/>
<path d="M0 0 C0.99 3.96 1.98 7.92 3 12 C-1 15 -1 15 -3 15 C-4.04976964 11.85069107 -4.10131595 9.61185544 -4.0625 6.3125 C-4.05347656 5.31863281 -4.04445312 4.32476562 -4.03515625 3.30078125 C-4.02355469 2.54152344 -4.01195312 1.78226563 -4 1 C-2 0 -2 0 0 0 Z " fill="#619F35" transform="translate(232,35)"/>
<path d="M0 0 C6.27942003 0 7.48516014 0.06152267 12 4 C17 11.38845144 17 11.38845144 17 15 C16.34 15 15.68 15 15 15 C14.67 13.35 14.34 11.7 14 10 C13.071875 9.8453125 13.071875 9.8453125 12.125 9.6875 C10 9 10 9 8 6 C8 5.34 8 4.68 8 4 C6.35 3.67 4.7 3.34 3 3 C3 6.3 3 9.6 3 13 C2.67 13 2.34 13 2 13 C1.34 8.71 0.68 4.42 0 0 Z " fill="#71A83C" transform="translate(184,134)"/>
<path d="M0 0 C1.98 0 3.96 0 6 0 C8.83022097 3.99560608 7.76210446 7.42737323 7 12 C6.34 12 5.68 12 5 12 C5.33 13.32 5.66 14.64 6 16 C2.58718628 13.35196246 2.16804451 10.42726168 1.3125 6.3125 C1.06113281 5.13300781 0.80976563 3.95351563 0.55078125 2.73828125 C0.36902344 1.83464844 0.18726563 0.93101563 0 0 Z " fill="#5F9E36" transform="translate(235,41)"/>
<path d="M0 0 C1.98 0 3.96 0 6 0 C6 3.33333333 6 6.66666667 6 10 C4.02 10 2.04 10 0 10 C0 6.7 0 3.4 0 0 Z " fill="#F8BE13" transform="translate(248,101)"/>
<path d="M0 0 C2.58926331 2.58926331 2.37398043 4.02705279 2.625 7.625 C2.69976562 8.62789062 2.77453125 9.63078125 2.8515625 10.6640625 C2.92503906 11.82035156 2.92503906 11.82035156 3 13 C1.68 13.33 0.36 13.66 -1 14 C-1 16.31 -1 18.62 -1 21 C-1.33 21 -1.66 21 -2 21 C-2.05420701 18.43721301 -2.09377007 15.87558517 -2.125 13.3125 C-2.15013672 12.2306543 -2.15013672 12.2306543 -2.17578125 11.12695312 C-2.21391569 6.95123219 -1.8789919 3.7505862 0 0 Z " fill="#7EB149" transform="translate(229,22)"/>
<path d="M0 0 C0.66 0 1.32 0 2 0 C2.33 0.66 2.66 1.32 3 2 C3.66 1.34 4.32 0.68 5 0 C7.10428384 5.12919186 7.21755666 9.5610835 7 15 C4.25484323 12.61666905 3.10919982 10.31090681 1.8125 6.9375 C1.46832031 6.05964844 1.12414062 5.18179688 0.76953125 4.27734375 C0 2 0 2 0 0 Z " fill="#7DB639" transform="translate(191,161)"/>
<path d="M0 0 C0.33 0 0.66 0 1 0 C1.06058594 1.31355469 1.12117188 2.62710938 1.18359375 3.98046875 C1.26803256 5.71615541 1.35267888 7.45183198 1.4375 9.1875 C1.47681641 10.05181641 1.51613281 10.91613281 1.55664062 11.80664062 C1.76347016 15.95914122 2.00103531 19.94537862 3 24 C3.66 24 4.32 24 5 24 C5.33 25.98 5.66 27.96 6 30 C1.58185657 26.49595521 0.08225395 22.37943877 -1 17 C-1.41262081 11.19383575 -1.28675196 5.68661348 0 0 Z " fill="#FFF3B4" transform="translate(286,120)"/>
<path d="M0 0 C0.66 0.33 1.32 0.66 2 1 C2.40632091 2.98645776 2.72949547 4.99053778 3 7 C3.32635698 8.66804677 3.65725594 10.33524314 4 12 C2.68 12 1.36 12 0 12 C-0.2165625 12.8971875 -0.2165625 12.8971875 -0.4375 13.8125 C-0.8872439 15.56150404 -1.42892341 17.28677023 -2 19 C-2.66 17.02 -3.32 15.04 -4 13 C-5.32 13.33 -6.64 13.66 -8 14 C-7.67 12.68 -7.34 11.36 -7 10 C-5.02 10 -3.04 10 -1 10 C-0.67 6.7 -0.34 3.4 0 0 Z " fill="#F4C42F" transform="translate(385,122)"/>
<path d="M0 0 C1.65 0.33 3.3 0.66 5 1 C5.3125 3.8125 5.3125 3.8125 5 7 C2.14925356 9.31141604 0.6860549 10 -3 10 C-2.38722388 7.03824877 -1.74627478 5.61941217 0 3 C0 2.01 0 1.02 0 0 Z " fill="#6FB22A" transform="translate(219,156)"/>
<path d="M0 0 C0.33 0 0.66 0 1 0 C1 8.58 1 17.16 1 26 C-3.0162801 19.97557984 -2.93287723 11.71305799 -1.55078125 4.73046875 C-1.0927663 3.13553727 -0.5559126 1.56350418 0 0 Z " fill="#FDF4BE" transform="translate(336,118)"/>
<path d="M0 0 C0.33 0 0.66 0 1 0 C1.02505615 0.69150146 1.0501123 1.38300293 1.07592773 2.09545898 C1.19152161 5.20967866 1.31441242 8.32356789 1.4375 11.4375 C1.47681641 12.52611328 1.51613281 13.61472656 1.55664062 14.73632812 C1.59853516 15.77080078 1.64042969 16.80527344 1.68359375 17.87109375 C1.73858032 19.30859985 1.73858032 19.30859985 1.79467773 20.77514648 C1.75834424 22.97138925 1.75834424 22.97138925 3 24 C3.14115161 26.67058851 3.04247107 29.32432238 3 32 C3.66 32 4.32 32 5 32 C4.67 32.99 4.34 33.98 4 35 C2 34 2 34 0.8828125 30.78125 C-0.49234206 24.7531752 -0.21281604 18.64712247 -0.125 12.5 C-0.11597656 11.29601562 -0.10695313 10.09203125 -0.09765625 8.8515625 C-0.07423775 5.9008321 -0.04143993 2.95052311 0 0 Z " fill="#F2C12D" transform="translate(278,118)"/>
<path d="M0 0 C0.33 0 0.66 0 1 0 C1.08103404 2.91722548 1.14051081 5.83219516 1.1875 8.75 C1.21263672 9.575 1.23777344 10.4 1.26367188 11.25 C1.27333984 12.04921875 1.28300781 12.8484375 1.29296875 13.671875 C1.3086792 14.4050293 1.32438965 15.13818359 1.34057617 15.89355469 C1 18 1 18 -2 22 C-2.66 17.71 -3.32 13.42 -4 9 C-2.515 9.99 -2.515 9.99 -1 11 C-0.67 7.37 -0.34 3.74 0 0 Z " fill="#81B548" transform="translate(202,154)"/>
<path d="M0 0 C2 1 2 1 3.1875 3.25 C4.10736667 6.36339489 4.07066415 7.9527251 3 11 C2.01 11.66 1.02 12.32 0 13 C0.33 10.36 0.66 7.72 1 5 C-3.29 5 -7.58 5 -12 5 C-12 4.34 -12 3.68 -12 3 C-10.7625 3.061875 -9.525 3.12375 -8.25 3.1875 C-5.21788698 3.20362826 -4.17751704 3.10651023 -1.5 1.5 C-1.005 1.005 -0.51 0.51 0 0 Z " fill="#F3C43A" transform="translate(353,148)"/>
<path d="M0 0 C0.33 0.66 0.66 1.32 1 2 C1.99 2.33 2.98 2.66 4 3 C3.34215037 6.29680965 2.10579427 8.84117922 0.4375 11.75 C-0.01753906 12.54921875 -0.47257813 13.3484375 -0.94140625 14.171875 C-1.29074219 14.77515625 -1.64007813 15.3784375 -2 16 C-3.58272601 12.83454798 -2.33086619 10.25581122 -1.5625 6.875 C-1.27503906 5.59367188 -0.98757812 4.31234375 -0.69140625 2.9921875 C-0.46324219 2.00476563 -0.23507813 1.01734375 0 0 Z " fill="#2B6731" transform="translate(227,147)"/>
<path d="M0 0 C0.99 0 1.98 0 3 0 C3.68824494 12.88547468 3.68824494 12.88547468 1.1875 16.8125 C0.465625 17.534375 -0.25625 18.25625 -1 19 C-1.99 19 -2.98 19 -4 19 C-3.34 18.278125 -2.68 17.55625 -2 16.8125 C1.38051862 11.89646413 0.30384138 5.68858582 0 0 Z " fill="#EBFBD1" transform="translate(152,43)"/>
<path d="M0 0 C2.33364352 2.92903058 4.04960836 5.88568203 5.6875 9.25 C6.12449219 10.14203125 6.56148437 11.0340625 7.01171875 11.953125 C7.33785156 12.62859375 7.66398438 13.3040625 8 14 C7.01 14.495 7.01 14.495 6 15 C6 14.01 6 13.02 6 12 C5.401875 11.731875 4.80375 11.46375 4.1875 11.1875 C2.02775192 10.01506533 0.64209744 8.80630718 -1 7 C-0.34 5.68 0.32 4.36 1 3 C0.34 3 -0.32 3 -1 3 C-0.67 2.01 -0.34 1.02 0 0 Z " fill="#6FA83E" transform="translate(224,77)"/>
<path d="M0 0 C0.66 0 1.32 0 2 0 C4.52043679 3.78065518 4.15407342 6.70607391 4 11.0625 C3.90603267 13.7335215 3.90677464 16.32268407 4 19 C4.66 19.66 5.32 20.32 6 21 C5.625 23.125 5.625 23.125 5 25 C3.0667795 23.38459556 2.09604201 22.46973889 1.58349609 19.96289062 C1.56367676 19.20169922 1.54385742 18.44050781 1.5234375 17.65625 C1.4925 16.82222656 1.4615625 15.98820313 1.4296875 15.12890625 C1.41164062 14.26136719 1.39359375 13.39382813 1.375 12.5 C1.32391944 10.78113902 1.26937612 9.06237655 1.2109375 7.34375 C1.19337402 6.58255859 1.17581055 5.82136719 1.15771484 5.03710938 C1.06700373 2.79758536 1.06700373 2.79758536 0 0 Z " fill="#F2FDDB" transform="translate(229,0)"/>
<path d="M0 0 C2.35082212 2.89642841 3.83519406 5.65356331 5.1875 9.125 C5.53167969 9.99382812 5.87585938 10.86265625 6.23046875 11.7578125 C7 14 7 14 7 16 C4.03 16 1.06 16 -2 16 C-2 15.67 -2 15.34 -2 15 C-0.02 15 1.96 15 4 15 C3.71125 14.33613281 3.4225 13.67226562 3.125 12.98828125 C2.568125 11.66376953 2.568125 11.66376953 2 10.3125 C1.62875 9.44238281 1.2575 8.57226562 0.875 7.67578125 C-0.01870488 4.9427998 -0.16449676 2.85299066 0 0 Z " fill="#F0C43A" transform="translate(393,146)"/>
<path d="M0 0 C2.31 1.65 4.62 3.3 7 5 C8.1446875 3.9790625 8.1446875 3.9790625 9.3125 2.9375 C10.199375 2.298125 11.08625 1.65875 12 1 C12.99 1.33 13.98 1.66 15 2 C11.535 4.97 11.535 4.97 8 8 C3.56541027 6.6062718 1.12621626 4.39417765 -2 1 C-1.34 0.67 -0.68 0.34 0 0 Z " fill="#D4F3A3" transform="translate(305,84)"/>
<path d="M0 0 C0.66 0.33 1.32 0.66 2 1 C2 6.28 2 11.56 2 17 C-2 13 -2 13 -3 10 C-2.34 10 -1.68 10 -1 10 C-0.67 6.7 -0.34 3.4 0 0 Z " fill="#378656" transform="translate(143,63)"/>
<path d="M0 0 C2.31 0.66 4.62 1.32 7 2 C7.76173392 6.3164922 8.16063604 9.74433453 7 14 C6.01 13.34 5.02 12.68 4 12 C4.268125 11.13375 4.53625 10.2675 4.8125 9.375 C5.01839588 5.66887413 4.82153412 5.29015261 2.5625 2.625 C1.716875 1.75875 0.87125 0.8925 0 0 Z " fill="#EDFAD7" transform="translate(315,66)"/>
<path d="M0 0 C5.875 3.875 5.875 3.875 7 5 C11.8215583 5.28362108 15.50492881 4.75417412 20 3 C20 3.66 20 4.32 20 5 C16.65060119 7.02558881 14.13037449 7.21738987 10.25 7.125 C9.26515625 7.10695312 8.2803125 7.08890625 7.265625 7.0703125 C6.14414062 7.03550781 6.14414062 7.03550781 5 7 C4.67 6.01 4.34 5.02 4 4 C3.01 4 2.02 4 1 4 C0.67 2.68 0.34 1.36 0 0 Z " fill="#FDF3BE" transform="translate(334,158)"/>
<path d="M0 0 C0.66 0 1.32 0 2 0 C2.1799928 5.21979128 1.97094808 9.07262981 0 14 C-0.144375 13.360625 -0.28875 12.72125 -0.4375 12.0625 C-0.81007181 10.02454854 -0.81007181 10.02454854 -2 9 C-2.99 9.495 -2.99 9.495 -4 10 C-2.8905928 6.51329166 -1.73662334 3.22515763 0 0 Z " fill="#E3F5C9" transform="translate(228,13)"/>
<path d="M0 0 C0.99 0.33 1.98 0.66 3 1 C3.38344159 3.6074028 3.374232 5.38063153 1.9921875 7.66796875 C0.6875 9.3125 0.6875 9.3125 -2 12 C-2.99 12 -3.98 12 -5 12 C-3.95975088 9.75946342 -2.93953446 7.92558087 -1.375 6 C0.37768588 3.85514888 0.37768588 3.85514888 0 0 Z " fill="#FEF9D9" transform="translate(397,104)"/>
<path d="M0 0 C1.3729404 2.7458808 0.35369789 4.2104042 -0.51074219 7.01220703 C-1.32369559 10.31513448 -1.18489926 13.55319168 -1.125 16.9375 C-1.11597656 17.62134766 -1.10695313 18.30519531 -1.09765625 19.00976562 C-1.07438958 20.67333287 -1.03853167 22.33671631 -1 24 C-3.59212708 21.40787292 -3.28827606 19.56339545 -3.32226562 16.02539062 C-3.31904297 15.25388672 -3.31582031 14.48238281 -3.3125 13.6875 C-3.32861328 12.92759766 -3.34472656 12.16769531 -3.36132812 11.38476562 C-3.3653656 6.73763691 -2.90252479 3.83684675 0 0 Z " fill="#F0C02F" transform="translate(336,116)"/>
<path d="M0 0 C0.33 1.32 0.66 2.64 1 4 C0.34 4 -0.32 4 -1 4 C-1 6.97 -1 9.94 -1 13 C0.65 12.67 2.3 12.34 4 12 C3.34 13.32 2.68 14.64 2 16 C0.68 15.67 -0.64 15.34 -2 15 C-2 11.04 -2 7.08 -2 3 C-1.34 3 -0.68 3 0 3 C0 2.01 0 1.02 0 0 Z " fill="#8EC442" transform="translate(202,184)"/>
<path d="M0 0 C0.99 0.33 1.98 0.66 3 1 C4.203125 3.58203125 4.203125 3.58203125 5.25 6.8125 C5.60578125 7.87082031 5.9615625 8.92914063 6.328125 10.01953125 C6.9784667 12.90447728 7.02681757 14.28156631 6 17 C6 16.01 6 15.02 6 14 C5.34 14 4.68 14 4 14 C2.40861915 9.82262526 1.78721942 6.46839215 2 2 C1.01 1.67 0.02 1.34 -1 1 C-0.67 0.67 -0.34 0.34 0 0 Z " fill="#FEF6BD" transform="translate(379,134)"/>
<path d="M0 0 C3.16115776 1.36983503 3.9927092 1.9890638 6 5 C5.75 7.125 5.75 7.125 5 9 C4.01 9.495 4.01 9.495 3 10 C3 7.69 3 5.38 3 3 C2.34 3 1.68 3 1 3 C1 3.66 1 4.32 1 5 C-0.32 5.33 -1.64 5.66 -3 6 C-2.01 4.02 -1.02 2.04 0 0 Z " fill="#F1C235" transform="translate(392,100)"/>
<path d="M0 0 C1.98 0 3.96 0 6 0 C6 0.99 6 1.98 6 3 C5.01 3.33 4.02 3.66 3 4 C3 6.97 3 9.94 3 13 C2.67 13 2.34 13 2 13 C1.34 8.71 0.68 4.42 0 0 Z " fill="#78AB47" transform="translate(184,134)"/>
<path d="M0 0 C2.9375 0.5 2.9375 0.5 5.9375 4.5 C1.6475 4.5 -2.6425 4.5 -7.0625 4.5 C-3.0625 0.5 -3.0625 0.5 0 0 Z " fill="#FEF5BF" transform="translate(346.0625,109.5)"/>
<path d="M0 0 C1.32 0.66 2.64 1.32 4 2 C2.35 3.98 0.7 5.96 -1 8 C-1.33 7.01 -1.66 6.02 -2 5 C-2.66 4.67 -3.32 4.34 -4 4 C-2.68 2.68 -1.36 1.36 0 0 Z " fill="#94C64A" transform="translate(318,78)"/>
<path d="M0 0 C5.80205656 5.64524422 5.80205656 5.64524422 8 9 C8 9.66 8 10.32 8 11 C6 11 6 11 4.375 9.5 C3.92125 9.005 3.4675 8.51 3 8 C3 8.66 3 9.32 3 10 C2.34 10 1.68 10 1 10 C1.33 7.69 1.66 5.38 2 3 C1.34 3 0.68 3 0 3 C0 2.01 0 1.02 0 0 Z " fill="#197B3F" transform="translate(136,52)"/>
<path d="M0 0 C0.99 0 1.98 0 3 0 C3 6.93 3 13.86 3 21 C2.67 21 2.34 21 2 21 C1.90912109 19.35451172 1.90912109 19.35451172 1.81640625 17.67578125 C1.73195502 16.22134346 1.64730934 14.76691695 1.5625 13.3125 C1.52318359 12.59126953 1.48386719 11.87003906 1.44335938 11.12695312 C1.21814322 7.33292718 0.87160695 3.71348508 0 0 Z " fill="#F6CC4B" transform="translate(306,117)"/>
<path d="M0 0 C0.99 0 1.98 0 3 0 C3 2.64 3 5.28 3 8 C0.525 7.01 0.525 7.01 -2 6 C-1.34 4.02 -0.68 2.04 0 0 Z " fill="#649D43" transform="translate(237,109)"/>
<path d="M0 0 C4.29 0 8.58 0 13 0 C8.61017006 3.29237246 7.28011468 3.58667941 2 3 C1.34 2.01 0.68 1.02 0 0 Z " fill="#F5C537" transform="translate(339,161)"/>
<path d="M0 0 C2 0.3125 2 0.3125 4 1 C5.4783226 3.95664519 5.06032783 6.74229737 5 10 C4.34 10 3.68 10 3 10 C2.896875 8.88625 2.79375 7.7725 2.6875 6.625 C2.460625 5.42875 2.23375 4.2325 2 3 C1.01 2.34 0.02 1.68 -1 1 C-0.67 0.67 -0.34 0.34 0 0 Z " fill="#588947" transform="translate(238,153)"/>
<path d="M0 0 C2 1.5 2 1.5 3 3 C1.35 3.33 -0.3 3.66 -2 4 C-2 3.01 -2 2.02 -2 1 C-2.7425 1.350625 -3.485 1.70125 -4.25 2.0625 C-7.1322726 3.04509293 -8.21176345 3.0326802 -11 2 C-7.22364747 -0.51756835 -4.43634442 -0.63772451 0 0 Z " fill="#F4C232" transform="translate(299,98)"/>
<path d="M0 0 C0.66 0 1.32 0 2 0 C1.60196439 2.88575819 1.20990931 3.82189513 -1.0625 5.75 C-1.701875 6.1625 -2.34125 6.575 -3 7 C-3.66 5.68 -4.32 4.36 -5 3 C-3.35 2.67 -1.7 2.34 0 2 C0 1.34 0 0.68 0 0 Z " fill="#85C532" transform="translate(314,83)"/>
<path d="M0 0 C0 2.62113708 -0.31292445 4.50935112 -1 7 C0.32 7.66 1.64 8.32 3 9 C2.34 9.66 1.68 10.32 1 11 C-0.65 9.35 -2.3 7.7 -4 6 C-2.84826645 3.53199953 -1.95216435 1.95216435 0 0 Z " fill="#8DC23F" transform="translate(306,68)"/>
<path d="M0 0 C0.66 0 1.32 0 2 0 C2 0.99 2 1.98 2 3 C2.66 3 3.32 3 4 3 C4 4.98 4 6.96 4 9 C2.35 9.66 0.7 10.32 -1 11 C-0.34 10.01 0.32 9.02 1 8 C1.02749478 5.93089407 1.02749478 5.93089407 0.625 3.8125 C0.41875 2.554375 0.2125 1.29625 0 0 Z " fill="#FFF6C7" transform="translate(355,150)"/>
<path d="M0 0 C2 2 2 2 2.1953125 3.9453125 C2.13020833 5.96354167 2.06510417 7.98177083 2 10 C1.67 8.68 1.34 7.36 1 6 C-0.32 6.99 -1.64 7.98 -3 9 C-2.44271087 5.65626525 -1.64826111 2.96687001 0 0 Z " fill="#3B743A" transform="translate(203,40)"/>
<path d="M0 0 C4.29 0 8.58 0 13 0 C8.83360609 3.12479543 7.92637159 3.6288985 3 3 C2.01 2.01 1.02 1.02 0 0 Z " fill="#F3C53B" transform="translate(288,161)"/>
<path d="M0 0 C0.33 0 0.66 0 1 0 C1.75 2.6875 1.75 2.6875 2 6 C0.1875 8.875 0.1875 8.875 -2 11 C-2.66 11 -3.32 11 -4 11 C-2.7874262 7.27566618 -1.49140021 3.62197194 0 0 Z " fill="#7CB044" transform="translate(218,154)"/>
<path d="M0 0 C0.33 0 0.66 0 1 0 C1 2.64 1 5.28 1 8 C0.34 7.34 -0.32 6.68 -1 6 C-2.65 6.66 -4.3 7.32 -6 8 C-5.02471263 6.66382648 -4.04466681 5.3311249 -3.0625 4 C-2.24458984 2.88625 -2.24458984 2.88625 -1.41015625 1.75 C-0.94480469 1.1725 -0.47945313 0.595 0 0 Z " fill="#FEF7C3" transform="translate(307,154)"/>
<path d="M0 0 C1.32 0.33 2.64 0.66 4 1 C4 1.66 4 2.32 4 3 C2.35 3.33 0.7 3.66 -1 4 C-1.33 5.32 -1.66 6.64 -2 8 C-2.66 8 -3.32 8 -4 8 C-2.87548273 5.0280615 -1.77706209 2.66559313 0 0 Z " fill="#92C745" transform="translate(226,0)"/>
<path d="M0 0 C0.99 0.495 0.99 0.495 2 1 C2 2.32 2 3.64 2 5 C2.66 5 3.32 5 4 5 C4.33 6.98 4.66 8.96 5 11 C1.87729874 8.48169253 1.05476902 7.2738451 0.25 3.25 C0.1675 2.1775 0.085 1.105 0 0 Z " fill="#FEF8CB" transform="translate(287,139)"/>
<path d="M0 0 C0.33 0.66 0.66 1.32 1 2 C1.66 2 2.32 2 3 2 C3 4.64 3 7.28 3 10 C0.51280729 7.08025204 -0.58572305 4.83206182 -1 1 C-0.67 0.67 -0.34 0.34 0 0 Z " fill="#FEF5C3" transform="translate(392,138)"/>
<path d="M0 0 C0.33 0 0.66 0 1 0 C1 3.96 1 7.92 1 12 C0.67 12 0.34 12 0 12 C-0.33 10.02 -0.66 8.04 -1 6 C-1.99 5.67 -2.98 5.34 -4 5 C-2.69254251 3.31295807 -1.35827971 1.64639965 0 0 Z " fill="#90C24F" transform="translate(152,44)"/>
<path d="M0 0 C0.6875 1.8125 0.6875 1.8125 1 4 C-0.3125 5.5625 -0.3125 5.5625 -2 7 C-2.66 7.99 -3.32 8.98 -4 10 C-3.5205537 5.78087253 -2.83374881 3.20336822 0 0 Z " fill="#DFEFEA" transform="translate(75,112)"/>
<path d="M0 0 C1.98 0 3.96 0 6 0 C6 0.66 6 1.32 6 2 C4.68 2.33 3.36 2.66 2 3 C1.67 4.98 1.34 6.96 1 9 C0.67 9 0.34 9 0 9 C0 6.03 0 3.06 0 0 Z " fill="#F3BC1E" transform="translate(309,101)"/>
<path d="M0 0 C2 3.875 2 3.875 2 5 C-0.64 5 -3.28 5 -6 5 C-5.34 4.67 -4.68 4.34 -4 4 C-4 3.34 -4 2.68 -4 2 C-2.68 1.34 -1.36 0.68 0 0 Z " fill="#F5FCDD" transform="translate(314,95)"/>
<path d="M0 0 C1.8871875 0.0309375 1.8871875 0.0309375 3.8125 0.0625 C3.4825 0.7225 3.1525 1.3825 2.8125 2.0625 C1.925625 2.000625 1.03875 1.93875 0.125 1.875 C-3.53235017 2.08201982 -5.23527151 2.978574 -8.1875 5.0625 C-7.875 3.125 -7.875 3.125 -7.1875 1.0625 C-4.43671116 0.14557039 -2.82801087 -0.04636083 0 0 Z " fill="#F2BE21" transform="translate(346.1875,108.9375)"/>
<path d="M0 0 C1.32 1.32 2.64 2.64 4 4 C3.34 5.98 2.68 7.96 2 10 C1.67 10 1.34 10 1 10 C0.67 6.7 0.34 3.4 0 0 Z " fill="#F3C540" transform="translate(354,102)"/>
<path d="M0 0 C0.66 0.66 1.32 1.32 2 2 C0.7260411 4.03833424 -0.61061923 6.03852126 -2 8 C-2.66 8 -3.32 8 -4 8 C-2.25 2.25 -2.25 2.25 0 0 Z " fill="#173F2E" transform="translate(68,102)"/>
<path d="M0 0 C-0.33 2.64 -0.66 5.28 -1 8 C-1.66 8 -2.32 8 -3 8 C-3 5.69 -3 3.38 -3 1 C-1 0 -1 0 0 0 Z " fill="#88C929" transform="translate(152,49)"/>
<path d="M0 0 C0.66 1.32 1.32 2.64 2 4 C0.02 4.33 -1.96 4.66 -4 5 C-3.6875 3.0625 -3.6875 3.0625 -3 1 C-2.01 0.67 -1.02 0.34 0 0 Z " fill="#53903B" transform="translate(239,154)"/>
<path d="M0 0 C0.66 0 1.32 0 2 0 C3.09898702 3.29696105 2.87124444 4.40494903 2.0625 7.6875 C1.86785156 8.49574219 1.67320312 9.30398437 1.47265625 10.13671875 C1.23869141 11.05904297 1.23869141 11.05904297 1 12 C0.67 12 0.34 12 0 12 C0 8.04 0 4.08 0 0 Z " fill="#0D7537" transform="translate(136,55)"/>
<path d="M0 0 C0.66 0.33 1.32 0.66 2 1 C2 2.32 2 3.64 2 5 C0.35 5 -1.3 5 -3 5 C-1.125 1.125 -1.125 1.125 0 0 Z " fill="#4B8D2E" transform="translate(242,58)"/>
<path d="M0 0 C0.66 0 1.32 0 2 0 C2 2.31 2 4.62 2 7 C0.68 6.34 -0.64 5.68 -2 5 C-1.34 3.35 -0.68 1.7 0 0 Z " fill="#D2EAC0" transform="translate(206,53)"/>
<path d="M0 0 C0.66 0 1.32 0 2 0 C1.74438677 2.3431213 1.40729228 4.67843403 1 7 C0.01 7.495 0.01 7.495 -1 8 C-1.04241723 5.66705225 -1.04092937 3.33297433 -1 1 C-0.67 0.67 -0.34 0.34 0 0 Z " fill="#61A72B" transform="translate(230,35)"/>
</svg>
